<svg id="icons" enable-background="new 0 0 64 64" height="512" viewBox="0 0 64 64" width="512" xmlns="http://www.w3.org/2000/svg"><g><g><path d="m31.999 63.5c-.553 0-1-.447-1-1v-40c0-.553.447-1 1-1s1 .447 1 1v40c0 .553-.447 1-1 1z" fill="#8cc152"/></g><g><g><path d="m37.01 15.5v4h-.01c0 2.76-2.23 5-5 5-2.76 0-5-2.24-5-5v-4z" fill="#a0d468"/></g><g><path d="m47 .5c1.65 0 3 1.34 3 3 0 5.531-4.48 10-10 10h-.99c-1.109 0-2 .891-2 2h-10.01c0-1.109-.89-2-2-2h-1c-5.52 0-10-4.469-10-10 0-1.66 1.35-3 3-3 0 1.66 1.35 3 3 3 1.66 0 3-1.34 3-3 0 1.66 1.35 3 3 3 1.66 0 3-1.34 3-3 0 1.66 1.35 3 3 3 1.66 0 3-1.34 3-3 0 1.66 1.35 3 3 3 1.66 0 3-1.34 3-3 0 1.66 1.35 3 3 3 1.66 0 3-1.34 3-3z" fill="#5d9cec"/></g></g><g><path d="m31.999 57.508c-.553 0-1-.447-1-1 0-8.271 6.729-15 15-15 .553 0 1 .447 1 1s-.447 1-1 1c-7.168 0-13 5.832-13 13 0 .553-.447 1-1 1z" fill="#a0d468"/></g><g><path d="m31.999 46.498c-.553 0-1-.447-1-1 0-7.168-5.832-13-13-13-.553 0-1-.447-1-1s.447-1 1-1c8.271 0 15 6.729 15 15 0 .553-.447 1-1 1z" fill="#a0d468"/></g></g></svg>