<svg id="icons" enable-background="new 0 0 64 64" height="512" viewBox="0 0 64 64" width="512" xmlns="http://www.w3.org/2000/svg"><g><g><path d="m32.003 50.277v7.94l-10-19.94 9.93 9h.07z" fill="#8cc152"/></g><g><path d="m46.003 38.277-14 22.94v-3-7.94h.07z" fill="#8cc152"/></g><g><g><path d="m32 63.283c-.553 0-1-.447-1-1v-24.457c0-.553.447-1 1-1s1 .447 1 1v24.457c0 .553-.447 1-1 1z" fill="#a0d468"/></g></g><g><path d="m35.673 18.667c2.08-1.16 4.69-1.22 6.89.05.631.36 1.341.9 2.051 1.55 3.1 2.82 6.42 7.801 4.84 10.521-1.521 2.64-7.21 2.35-11.181 1.17v-.01c-1.06-.311-1.989-.69-2.699-1.101-2.71-1.569-3.98-4.67-3.34-7.569 1.55-.12 2.77-1.42 2.77-2.99 0-.38-.07-.73-.19-1.06.269-.211.559-.401.859-.561z" fill="#ac92ec"/></g><g><path d="m42.563 18.717c-2.199-1.27-4.81-1.21-6.89-.05 2-1.229 3.33-3.439 3.33-5.96 0-1.11-.26-2.59-.73-4.11 3.971-1.189 9.66-1.479 11.181 1.16 1.569 2.721-1.74 7.7-4.84 10.51-.711-.65-1.421-1.19-2.051-1.55z" fill="#967adc"/></g><g><path d="m34.772 19.137c.311-.14.61-.29.9-.47-.3.16-.59.35-.86.561-.019-.031-.029-.061-.04-.091z"/></g><g><path d="m29.233 19.137c.449-1.09 1.52-1.85 2.77-1.85s2.32.76 2.77 1.85c.011.03.021.061.04.091.12.329.19.68.19 1.06 0 1.57-1.22 2.87-2.77 2.99-.08.01-.15.01-.23.01s-.15 0-.23-.01c-1.55-.12-2.77-1.42-2.77-2.99 0-.38.07-.73.19-1.06.02-.031.03-.061.04-.091z" fill="#ffce54"/></g><g><path d="m32.003 39.827c-2.75 0-5.12-4.1-6.27-7.87v-.01c1.06-.311 2-.69 2.699-1.101 2.71-1.569 3.98-4.67 3.34-7.569.08.01.15.01.23.01s.15 0 .23-.01c-.641 2.899.63 6 3.34 7.569.71.41 1.64.79 2.699 1.101v.01c-1.148 3.771-3.518 7.87-6.268 7.87z" fill="#967adc"/></g><g><path d="m28.333 18.667c-2-1.229-3.33-3.439-3.33-5.96 0-1.11.26-2.59.73-4.11 1.14-3.77 3.52-7.88 6.27-7.88s5.13 4.11 6.27 7.88c.471 1.521.73 3 .73 4.11 0 2.521-1.33 4.73-3.33 5.96-.29.18-.59.33-.9.47-.449-1.09-1.52-1.85-2.77-1.85s-2.32.76-2.77 1.85c-.31-.14-.61-.29-.9-.47z" fill="#ac92ec"/></g><g><path d="m28.333 18.667c.29.18.59.33.9.47-.011.03-.021.061-.04.091-.27-.211-.56-.401-.86-.561z"/></g><g><path d="m14.543 9.757c1.53-2.64 7.22-2.35 11.19-1.16-.471 1.521-.73 3-.73 4.11 0 2.521 1.33 4.73 3.33 5.96-2.08-1.16-4.69-1.22-6.89.05-.631.37-1.341.91-2.061 1.55-3.089-2.81-6.399-7.789-4.839-10.51z" fill="#967adc"/></g><g><path d="m25.733 31.957c-3.971 1.18-9.66 1.46-11.19-1.18-1.57-2.71 1.74-7.681 4.84-10.511.72-.64 1.43-1.18 2.061-1.55 2.199-1.27 4.81-1.21 6.89-.05.3.16.59.35.86.561-.12.329-.19.68-.19 1.06 0 1.57 1.22 2.87 2.77 2.99.641 2.899-.63 6-3.34 7.569-.699.41-1.64.79-2.699 1.101v.01z" fill="#ac92ec"/></g></g></svg>